<?xml version="1.0" standalone="no"?><!DOCTYPE svg PUBLIC "-//W3C//DTD SVG 1.1//EN" "http://www.w3.org/Graphics/SVG/1.1/DTD/svg11.dtd"><svg t="1744966124302" class="icon" viewBox="0 0 1024 1024" version="1.1" xmlns="http://www.w3.org/2000/svg" p-id="8134" width="48" height="48" xmlns:xlink="http://www.w3.org/1999/xlink"><path d="M168.64 168.64c94.784-94.848 325.44-17.92 515.072 171.648 189.632 189.696 266.56 420.288 171.712 515.136-94.848 94.848-325.44 17.92-515.136-171.712C150.656 494.08 73.792 263.424 168.64 168.64zM638.464 385.6C470.592 217.728 275.2 152.576 213.888 213.888c-61.312 61.312 3.84 256.704 171.712 424.576 167.872 167.872 363.264 232.96 424.576 171.712 61.312-61.312-3.84-256.704-171.712-424.576z" p-id="8135" fill="#4E6CFF"></path><path d="M340.288 340.288C529.984 150.656 760.576 73.792 855.424 168.64c94.848 94.784 17.92 325.44-171.712 515.072S263.424 950.272 168.64 855.424c-94.848-94.848-17.92-325.504 171.648-515.136z m469.888-126.4c-61.312-61.312-256.704 3.84-424.576 171.712-167.872 167.872-233.024 363.2-171.712 424.576 61.312 61.312 256.704-3.84 424.576-171.712C806.336 470.592 871.424 275.2 810.176 213.888z" p-id="8136" fill="#4E6CFF"></path><path d="M442.624 512a69.376 69.376 0 1 0 138.752 0 69.376 69.376 0 1 0-138.752 0z" p-id="8137" fill="#4E6CFF"></path></svg>