<?xml version="1.0" standalone="no"?>
<!DOCTYPE svg PUBLIC "-//W3C//DTD SVG 1.1//EN" "http://www.w3.org/Graphics/SVG/1.1/DTD/svg11.dtd"><svg t="1744870650941"
	class="icon" viewBox="0 0 1024 1024" version="1.1" xmlns="http://www.w3.org/2000/svg" p-id="15998" width="48"
	height="48" xmlns:xlink="http://www.w3.org/1999/xlink">
	<path
		d="M209.066667 176.085333a42.666667 42.666667 0 0 0-42.666667 42.666667v453.333333a42.666667 42.666667 0 0 0 42.666667 42.666667h82.688a42.666667 42.666667 0 0 1 42.666666 42.666667v74.965333l226.133334-113.109333a42.965333 42.965333 0 0 1 19.072-4.522667H806.4a42.666667 42.666667 0 0 0 42.666667-42.666667v-154.666666a42.666667 42.666667 0 0 1 85.333333 0v154.666666a128 128 0 0 1-128 128h-216.576l-279.04 139.52a42.666667 42.666667 0 0 1-61.696-38.186666v-101.333334H209.066667a128 128 0 0 1-128-128V218.752a128 128 0 0 1 128-128h250.666666a42.666667 42.666667 0 1 1 0 85.333333z m514.688-85.333333a42.666667 42.666667 0 0 1 42.666666 42.666667v101.333333h101.333334a42.666667 42.666667 0 1 1 0 85.333333h-101.333334v101.333334a42.666667 42.666667 0 1 1-85.333333 0V320.085333h-101.333333a42.666667 42.666667 0 1 1 0-85.333333h101.290666V133.418667a42.666667 42.666667 0 0 1 42.666667-42.666667z"
		fill="#ffffff" p-id="15999"></path>
</svg>