<?xml version="1.0" standalone="no"?><!DOCTYPE svg PUBLIC "-//W3C//DTD SVG 1.1//EN" "http://www.w3.org/Graphics/SVG/1.1/DTD/svg11.dtd"><svg t="1745743627678" class="icon" viewBox="0 0 1024 1024" version="1.1" xmlns="http://www.w3.org/2000/svg" p-id="4627" width="48" height="48" xmlns:xlink="http://www.w3.org/1999/xlink"><path d="M715.7 794.7c-1.9-4.7-7.4-6.5-11.8-4-54.3 31.1-115.8 50.3-177.2 50.3-192.2 0-345.2-148.3-345.2-335.7 0-37.7 5.5-72.6 18.3-107.1l65.2 17.5c6.3 1.7 11.9-4.1 10-10.5l-55.5-183.1c-1.8-5.9-9.1-7.9-13.5-3.6l-139.4 131c-4.8 4.5-2.8 12.3 3.5 14.1l58.2 15.6c-15.7 42.6-25.4 86.5-25.4 135 0 226.6 187.9 409.8 419.5 409.8 76.7 0 149.6-18.6 215.5-55.9 3.6-2.1 5.2-6.5 3.6-10.4l-25.8-63zM308.2 229.2c1.9 4.7 7.4 6.5 11.8 4 54.3-31.2 115.8-50.3 177.2-50.3 192.2 0 345.2 148.3 345.2 335.7 0 37.7-5.5 72.6-18.3 107.1l-65.2-17.5c-6.3-1.7-11.9 4.1-10 10.5l55.5 183.1c1.8 5.9 9.1 7.9 13.5 3.6l139.5-130.8c4.8-4.5 2.8-12.3-3.5-14.1l-58.2-15.6c15.7-42.6 25.4-86.5 25.4-135 0-226.6-187.9-409.8-419.5-409.8-76.7 0-149.6 18.6-215.5 55.9-3.6 2.1-5.2 6.5-3.6 10.4l25.7 62.8z" p-id="4628" fill="#bfbfbf"></path></svg>